<svg id="Capa_1" data-name="Capa 1" xmlns="http://www.w3.org/2000/svg" viewBox="0 0 485.9 487.01"><title>globe</title><path d="M484.68,213.47c-4.5-40.88-19.54-78.23-43.87-111.5C401.62,48.39,349.2,15.63,283.74,4.23,270.69,2,257.35,1.37,244.14,0h-2.63c-12.34,1.35-24.73,2.25-37,4.13C78.67,23.44-12.33,142.61,2.06,269.39c6.86,60.52,32.21,112.13,77.21,153.28,53.5,48.94,117.06,69.93,189.12,63.08,55.3-5.27,103.56-27.57,143.33-66.49C469.48,362.7,493.5,293.56,484.68,213.47ZM433.4,338.07c-6.15-10.73-13.92-25.69-17.39-38.45-5-18.54-17.15-.63-18.16,11.48s-9.08,21.18-25.22,3S353.46,300,348.42,300s-14.12,12.11-12.1,68.61c1.43,40.33,17.34,46.73,27.74,49.66a206.84,206.84,0,0,1-66.38,30C202.52,472.45,105.39,428.59,60,341.46c-42.28-81.19-21.68-173,21.3-223.62,1.16,9.1,2.29,17.27,3.23,25.47,2.57,22.39.63,44.48-3.94,66.49a32.54,32.54,0,0,0,.63,14.65c.69,2.52,4.49,5.49,7.11,5.74,2.07.2,5.67-3.07,6.51-5.53,1.51-4.4,1.58-9.33,2-14,.34-3.34.34-6.72.57-12,3.41,2.77,5.9,4.45,8,6.53,5.27,5.31,10.61,10.59,15.42,16.3,2.12,2.53,4.31,6.08,4.25,9.13-.13,6.52,2.73,11,6.23,16.08,3.89,5.7,5.64,12.86,8.14,19.46,1,2.77,1.26,5.89,2.51,8.55,2.66,5.7,6.69,9.6,13.61,10,7.27.46,10,3.29,11,10.74-1.87.21-3.72.46-5.58.63-8.88.84-13.28,4.92-12.93,13.88.7,17.78,7.11,33.32,20.32,45.68,3.63,3.41,7.5,6.57,11,10.07,8.08,8,10.9,17.34,7,28.35-1.85,5.25-4.4,10.4-5.23,15.83a45.34,45.34,0,0,0,.44,16.91c1.32,5.61.75,17.89,6.55,16.88,10.26-1.81,16.15.22,16.95-11.27a9.27,9.27,0,0,0-.6-4.48c-3.05-10.78,10.8-41.39,19.11-47a204.69,204.69,0,0,0,20.65-15.24c9.28-8.06,13.43-18.48,9.53-30.61-3.66-11.41.63-19.79,8.61-27.14,8.14-7.49,13.47-16.12,12.92-27.64s-8.1-19.85-17.93-18.67c-4.8.57-9.41,2.87-14.1,4.45-6.86,2.32-13.57,5.57-20.62,6.84-9.88,1.75-16-4.71-20.37-12.54-3.55-6.3-4.72-6.79-10.87-2.86-5.19,3.32-10.38,6.66-15.76,9.67-5.58,3.12-8.63,2-12.94-2.71-2.55-2.76-6.07-4.69-9.35-6.68-2.35-1.44-5.54-1.84-7.43-3.65-2.53-2.44-6-6.07-5.7-8.73.42-3.11,4-7,7.18-8.28,5.42-2.2,11.58-2.56,17.4-3.82a60.5,60.5,0,0,0,9.16-2.53c4-1.6,3.84-4.23.77-6.71a20.84,20.84,0,0,0-5.2-2.8c-8.87-3.57-17.79-7-26.65-10.57a36.15,36.15,0,0,1-6.34-3.26c-5.58-3.66-6.25-7.69-1.19-12.15,19.95-17.6,43.26-22.76,63.91.63,6.4,7.24,10.74,16.27,16.78,23.88a93.94,93.94,0,0,0,16.26,16.24c2.49,1.9,8.09,2.22,10.87.7,4.15-2.27,4.3-7.45,2.21-11.76A59.22,59.22,0,0,0,239,214.32c-11.73-15.12-10.93-44.58,12.06-56.87,7.68-4.12,15.44-8.45,19.11-19.5-4.41,1.19-7.6,2-10.73,2.92-17.45,5.41-5.3-7.61,2.73-9.88,4.88-1.39-4.36-5.12-4.36-5.12.22-.39,6.13-2.07,12.71-4.88,4.53-1.92,9.16-4.09,12.92-7.15,2.43-2,3.37-5.82,5-8.82l-1.21-1.41c-4.61.62-9.22,1.31-13.84,1.83-7.83.87-9.67-.66-10.4-8.56-.5-5.4-6-8.34-11.13-5.57-3.47,1.88-6.48,4.61-9.82,6.77-7.71,5-13.48,3-16.51-5.61-1.8-5.13-4.31-6.1-9-3.23-2.38,1.44-4.36,3.55-6.77,4.9a80.6,80.6,0,0,1-12.23,5.93c-4.14,1.46-9.13,2.53-11.95-2-3-4.88-.38-9.64,3.44-12.7,4.74-3.81,10.21-6.76,15.55-9.75,7.6-4.28,15.65-7.84,23-12.51,5.39-3.43,7.74-9,6-15.65-1.47-5.58-5.21-7.47-10.37-4.91-4.27,2.12-8,5.44-12.39,7.15a20.84,20.84,0,0,1-10.65.63c-1.27-.22-2.62-3.74-2.65-5.79,0-1.18,2.36-3.23,3.89-3.48q15.9-2.47,31.92-4.26a5.79,5.79,0,0,1,4.41,1.84c7.05,8.9,16.88,13.21,27.22,16.29,8.69,2.58,9.95,1.35,11.14-7.76,11.16-2.63,22.5-7.81,33.73-.72A104.74,104.74,0,0,1,327,60.53c1.3,1.28.5,5.27-.12,7.83-.83,3.45-2.74,6.64-3.62,10.09-1.7,6.68,2.62,11.9,9.52,11.79,2.18,0,4.36-.49,6.55-.6,6.38-.3,8.64,2.14,8.06,8.58-.83,9.13.69,10.23,9.9,8.67,2.65-.45,5.7.75,8.4,1.7,1.61.57,2.86,2.11,4.29,3.19,8.56,6.49,15.11,4.06,17.62-6.56.27-1.16.23-2.39.47-3.56,1-4.77,3.68-6,6.9-2.61,6.81,7.22,13.2,14.83,20.11,22.69-7.43,6.81-7.68,15.08-6,23.19,1.82,9-.55,16.86-4.11,24.81-3.41,7.61-7.16,15.18-9.43,23.14-3.41,12,.46,17.42,12.6,20.06,11.58,2.53,13.48,4.86,13.92,16.19.58,15.45,8.52,26.11,22.07,32.91,3,1.5,6.21,2.64,9.28,3.92C451.83,289.77,445,314.56,433.4,338.07Z" transform="translate(-0.56 0)" fill="#fff"/></svg>