<svg id="Capa_1" data-name="Capa 1" xmlns="http://www.w3.org/2000/svg" viewBox="0 0 512 512" fill="#fff"><title>percent</title><path d="M256,512C114.84,512,0,397.16,0,256S114.84,0,256,0,512,114.84,512,256,397.16,512,256,512Zm0-480C132.49,32,32,132.48,32,256S132.48,480,256,480,480,379.52,480,256,379.52,32,256,32Z" transform="translate(0 0)"/><path d="M193,378.16l96-255.91,30,11.24L223,389.4Z" transform="translate(0 0)" fill="#fff"/><path id="path-1" d="M180.31,261.39a48,48,0,1,1,48-48,48.05,48.05,0,0,1-48,48Zm0-64a16,16,0,1,0,16,16A16,16,0,0,0,180.31,197.39Z" transform="translate(0 0)" fill="#fff"/><path id="path-1-2" data-name="path-1" d="M345.7,360.62a48,48,0,1,1,48-48A48.06,48.06,0,0,1,345.7,360.62Zm0-64a16,16,0,1,0,16,16A16,16,0,0,0,345.7,296.62Z" transform="translate(0 0)" fill="#fff"/></svg>