<svg id="Capa_1" data-name="Capa 1" xmlns="http://www.w3.org/2000/svg" viewBox="0 0 512 512"><title>phone</title><path d="M256,32c123.5,0,224,100.5,224,224S379.5,480,256,480,32,379.5,32,256,132.5,32,256,32m0-32C114.63,0,0,114.62,0,256S114.63,512,256,512,512,397.37,512,256,397.38,0,256,0ZM398.72,341.59l-1.44-4.37c-3.37-10.06-14.5-20.56-24.75-23.38L334.69,303.5c-10.25-2.78-24.88,1-32.41,8.5L288.6,325.69A145.36,145.36,0,0,1,186.38,223.44l13.68-13.69c7.5-7.5,11.25-22.13,8.47-32.41L198.22,139.5c-2.78-10.25-13.34-21.38-23.41-24.75l-4.31-1.44c-10.09-3.37-24.5,0-32,7.56L118,141.37c-3.66,3.63-6,14-6,14.07A241.75,241.75,0,0,0,356,400c.34,0,11.06-2.28,14.72-5.94l20.5-20.5C398.69,366.06,402.06,351.66,398.72,341.59Z" transform="translate(0 0)" fill="#fff"/></svg>